<svg width="7" height="12" viewBox="0 0 7 12" fill="none" xmlns="http://www.w3.org/2000/svg">
<path d="M6.5 6.02246C6.5 6.27441 6.40039 6.49121 6.20703 6.68457L1.70703 11.0732C1.55469 11.2256 1.36719 11.3076 1.14453 11.3076C0.687501 11.3076 0.32422 10.9443 0.32422 10.4932C0.32422 10.2705 0.41211 10.0596 0.576173 9.89551L4.56055 6.02832L0.576172 2.15527C0.417969 1.99121 0.324219 1.78613 0.324219 1.55762C0.324219 1.10645 0.6875 0.743164 1.14453 0.743164C1.36719 0.743164 1.55469 0.825195 1.71289 0.977539L6.20703 5.36621C6.40625 5.57129 6.5 5.77637 6.5 6.02246Z" fill="#69788C"/>
</svg>
