<svg width="20" height="20" viewBox="0 0 20 20" fill="none" xmlns="http://www.w3.org/2000/svg">
<path d="M9.81128 12.5521C10.0212 12.5521 10.2019 12.4691 10.363 12.3079L14.0203 8.55795C14.1472 8.43099 14.2156 8.27474 14.2156 8.0892C14.2156 7.70834 13.9128 7.4056 13.5369 7.4056C13.3513 7.4056 13.1755 7.47884 13.0388 7.61556L9.81616 10.9359L6.58862 7.61556C6.4519 7.48373 6.28101 7.4056 6.09058 7.4056C5.7146 7.4056 5.41187 7.70834 5.41187 8.0892C5.41187 8.27474 5.48022 8.43099 5.60718 8.56283L9.2644 12.3079C9.4353 12.474 9.6062 12.5521 9.81128 12.5521Z" fill="#084782"/>
</svg>
