<svg width="16" height="16" viewBox="0 0 16 16" fill="none" xmlns="http://www.w3.org/2000/svg">
<path fill-rule="evenodd" clip-rule="evenodd" d="M8.00012 7.04348C7.31053 7.04348 6.74943 7.62202 6.74943 8.33331C6.74943 9.04461 7.31053 9.62315 8.00012 9.62315C8.68972 9.62315 9.25082 9.04449 9.25082 8.33331C9.25082 7.62214 8.68972 7.04348 8.00012 7.04348ZM8.00008 4.66667C5.63818 4.66667 3.30768 6.41374 2.66675 8.33334C3.30768 10.2529 5.63818 12 8.00008 12C10.362 12 12.6925 10.2529 13.3334 8.33334C12.6925 6.41374 10.362 4.66667 8.00008 4.66667ZM8.0002 10.4326C6.87767 10.4326 5.9646 9.49085 5.9646 8.33331C5.9646 7.17577 6.87767 6.23401 8.0002 6.23401C9.12273 6.23401 10.0358 7.17577 10.0358 8.33331C10.0358 9.49085 9.12273 10.4326 8.0002 10.4326Z" fill="#025992"/>
</svg>
